<svg xmlns="http://www.w3.org/2000/svg" height="242.853" width="429.333"><g fill="#231f20"><path d="M272.588 38.872v8.776h-17.393v17.827h-9.383V47.648h-17.395v-8.776h17.395V21.339h9.383v17.533h17.393M75.36 6.025c0 3.356-2.754 6.022-6.11 6.022a5.983 5.983 0 01-6.021-6.022c0-3.352 2.754-6.021 6.021-6.021 3.356 0 6.11 2.67 6.11 6.021M64.436 21.34h9.63v44.136h-9.63V21.339M188.653 38.892v26.581h-9.722V40.18c0-6.623-3.786-10.665-9.635-10.665-6.108 0-10.24 4.644-10.24 10.75v25.208h-9.63V21.34h9.118v5.848c2.233-3.868 6.452-6.623 12.905-6.623 10.068 0 17.204 6.886 17.204 18.327M429.333 43.445c0 13.944-9.894 22.89-22.974 22.89-13.166 0-23.064-8.946-23.064-22.89 0-14.028 9.898-22.888 23.064-22.888 13.08 0 22.974 8.86 22.974 22.888m-36.228 0c0 9.126 5.591 14.543 13.254 14.543 7.57 0 13.252-5.417 13.252-14.543 0-9.208-5.682-14.629-13.252-14.629-7.663 0-13.254 5.421-13.254 14.63M26.242 28.824c-9.292-2.15-14.284-3.615-14.284-10.064 0-5.504 4.127-9.636 11.958-9.636 7 0 11.644 3.715 12.25 9.805h10.465C46.2 7.144 36.908.261 23.745.261 8.77.261 1.463 8.95 1.463 19.103c0 12.301 9.464 15.572 20.991 18.416 9.808 2.317 15.403 4.038 15.403 10.492 0 6.712-5.423 9.461-12.823 9.461-7.847 0-13.812-4.135-14.556-10.67H0c.428 12.566 10.927 19.533 25.034 19.533 12.734 0 23.232-5.76 23.232-19.011 0-11.356-8.519-15.23-22.024-18.5M358.704 46.804c-3.097 6.764-9.663 10.416-17.919 10.416-12.042 0-21.424-8.348-21.424-23.921 0-14.884 8.688-23.918 21.339-23.918 7.796 0 14.105 3.36 17.403 9.548h11.489C365.547 7.213 354.413.261 341.044.261c-18.499 0-32.095 12.128-32.095 33.038 0 20.822 13.766 33.036 32.184 33.036 13.878 0 25.07-7.278 28.906-19.531h-11.335M121.658 54.235c-1.789 2.398-4.955 3.756-9.223 3.756-6.712 0-11.271-4.214-11.784-10.926h32.433V42.33c0-13.416-8-21.764-20.649-21.764-12.821 0-22.021 8.516-22.021 22.886 0 14.285 9.29 22.885 22.276 22.885 9.349 0 16.813-5.24 19.356-12.101zm-9.31-25.411c7.141 0 10.75 4.305 11.016 10.67h-22.627c.518-6.886 5.16-10.67 11.611-10.67M130.433 182.67c-14.91 1.025-28.022 8.425-36.495 19.433a47.716 47.716 0 0118.358 4.37c3.28-9.721 9.724-18.044 18.137-23.804M137.57 182.67c14.91 1.025 28.02 8.425 36.495 19.433a47.696 47.696 0 00-18.356 4.37c-3.284-9.721-9.726-18.044-18.138-23.804"/><path d="M134.001 202.715c6.928 0 13.547 1.3 19.612 3.66-3.545-9.947-10.549-18.304-19.612-23.704-9.06 5.4-16.066 13.757-19.613 23.704a54.017 54.017 0 0119.613-3.66M99.303 234.443c1.976 2.368 4.142 3.924 7.645 3.924 3.123 0 6.564-1.308 6.564-4.486 0-3.113-3.186-3.922-6.37-4.608-5.672-1.246-10.517-2.43-10.517-8.47 0-5.671 5.61-8.6 11.152-8.6 4.206 0 8.093 1.558 10.131 5.297l-4.142 2.679c-1.275-2.059-3.375-3.488-6.308-3.488-2.74 0-5.86 1.308-5.86 4.049 0 2.428 3.567 3.485 7.517 4.235 5.288.996 9.749 2.866 9.749 8.72 0 6.605-5.989 9.157-11.916 9.157-5.033 0-8.666-1.31-11.596-5.421l3.951-2.988M160.897 212.204c-4.906 0-8.602 2.68-9.94 5.545h-.078v-4.797h-4.972v14.201c0 6.667-2.804 11.215-9.24 11.215-4.651 0-6.818-3.055-6.818-7.912v-17.504h-4.969v18.007c0 7.034 3.503 11.893 11.343 11.893 4.905 0 8.602-2.676 9.938-5.546h.082v4.8h4.97v-14.202c0-6.665 2.803-11.212 9.238-11.212 4.653 0 6.817 3.05 6.817 7.908v17.506h4.972v-18.005c0-7.034-3.507-11.897-11.343-11.897M180.484 196.855h4.972v20.332h.128c2.74-3.11 6.37-4.983 10.704-4.983 9.365 0 15.673 6.481 15.673 15.324 0 8.721-6.562 15.325-14.91 15.325-5.351 0-9.62-2.617-11.467-5.918h-.128v5.171h-4.972zm15.547 41.512c6.437 0 10.578-4.735 10.578-10.84 0-6.103-4.141-10.836-10.578-10.836-6.435 0-10.575 4.733-10.575 10.837s4.14 10.839 10.575 10.839M219.05 219.864c0-2.676-.255-4.979-.255-6.912h4.714c0 1.558.128 3.18.128 4.797h.126c1.338-2.864 5.034-5.546 9.938-5.546.64 0 1.342.065 2.043.314l-.321 4.92a9.602 9.602 0 00-2.674-.372c-6.056 0-8.732 4.174-8.732 10.839v14.201h-4.968v-22.24M266.355 236.81c-3.504 4.424-7.71 6.042-13.255 6.042-9.364 0-15.099-6.852-15.099-15.324 0-9.032 6.499-15.324 15.292-15.324 8.408 0 14.144 5.61 14.144 15.264v1.556h-24.082c.381 5.045 4.333 9.344 9.745 9.344 4.27 0 7.139-1.495 9.495-4.421zm-4.271-11.897c-.188-4.922-3.501-8.222-8.984-8.222-5.479 0-9.112 3.3-9.745 8.222h18.729M274.973 242.106h4.974v-45.251h-4.974v45.251M289.336 242.106h4.972v-45.251h-4.972v45.251M302.561 216.69c3.056-3.051 7.518-4.487 11.851-4.487 8.792 0 12.49 4.112 12.49 12.337v12.517c0 1.684.187 3.551.446 5.048h-4.779c-.318-1.308-.318-3.116-.318-4.358h-.13c-1.977 2.988-5.288 5.106-9.812 5.106-6.056 0-11.089-2.992-11.089-8.659 0-9.654 11.472-10.218 18.8-10.218h1.91v-.87c0-4.234-2.738-6.415-7.391-6.415-3.186 0-6.5 1.057-8.858 3.173zm14.4 11.4c-6.308 0-10.388 1.68-10.388 5.606 0 3.675 2.806 5.045 6.564 5.045 5.734 0 8.667-4.05 8.794-8.784v-1.868h-4.97M330.353 206.979c1.743 0 3.212 1.349 3.212 3.14 0 1.787-1.469 3.136-3.212 3.136-1.752 0-3.208-1.349-3.208-3.137 0-1.79 1.456-3.14 3.208-3.14m0 5.823c1.467 0 2.642-1.164 2.642-2.683 0-1.518-1.175-2.683-2.642-2.683-1.474 0-2.64 1.165-2.64 2.683 0 1.52 1.166 2.683 2.64 2.683m-1.225-4.522h1.415c.89 0 1.313.345 1.313 1.046 0 .667-.432.946-.993 1.004l1.077 1.62h-.612l-1.017-1.577h-.614v1.576h-.569zm.57 1.637h.587c.51 0 1-.025 1-.616 0-.505-.448-.565-.836-.565h-.752v1.18"/></g></svg>